# xmcd
#
# Track frame offsets:
# 150
# 12130
# 24975
# 40708
# 53538
# 75218
# 87693
# 110075
# 130693
# 147413
# 159558
# 171405
# 184525
# 200058
#
# Disc length: 2839 seconds
#
#
# Revision: 1
# Processed by: cddbd v1.5.1PL2 Copyright (c) Steve Scherf et al.
# Submitted via: FreeRIP 2.945 
#
DISCID=b00b150e
DTITLE=John Denver - The Best of John Denver
DYEAR=1993
DGENRE=Country
TTITLE0=Take Me Home Country Roads
TTITLE1=Annie's Song
TTITLE2=Leaving On A Jet Plane
TTITLE3=Follow Me
TTITLE4=Rocky Mountain High
TTITLE5=Sweet Surrender
TTITLE6=Sunshine On My Shoulder
TTITLE7=Back Home Again
TTITLE8=Fly Away
TTITLE9=Thank God I'm A Country Boy
TTITLE10=On The Road
TTITLE11=Perhaps Love (with Placido Domingo)
TTITLE12=Calypso
TTITLE13=Farewell Andromeda
EXTD=Starnice SNCD-764
EXTT0=
EXTT1=
EXTT2=
EXTT3=
EXTT4=
EXTT5=
EXTT6=
EXTT7=
EXTT8=
EXTT9=
EXTT10=
EXTT11=
EXTT12=
EXTT13=
PLAYORDER=
